<svg xmlns="http://www.w3.org/2000/svg" width="1200" height="900" viewBox="0 0 1200 900"><defs><linearGradient id="g" x1="0" y1="0" x2="1" y2="1"><stop offset="0" stop-color="#14181D"/><stop offset="1" stop-color="#3a1f22"/></linearGradient><filter id="b"><feGaussianBlur stdDeviation="60"/></filter></defs><rect width="1200" height="900" fill="url(#g)"/><g filter="url(#b)"><circle cx="809" cy="14" r="398" fill="#E4130E" opacity="0.182"/><circle cx="748" cy="737" r="464" fill="#E4130E" opacity="0.123"/><circle cx="903" cy="204" r="566" fill="#E4130E" opacity="0.156"/><circle cx="1143" cy="501" r="210" fill="#E4130E" opacity="0.158"/></g><path d="M122 638 l-102 165 h52 l-39 137 l111 -138 h-62 l71 -126 z" fill="#fff" opacity="0.097"/><path d="M1167 797 l-76 106 h55 l-30 133 l179 -212 h-68 l54 -82 z" fill="#fff" opacity="0.107"/><path d="M687 172 l-83 91 h53 l-71 144 l129 -178 h-46 l58 -71 z" fill="#fff" opacity="0.102"/><path d="M809 14 l-79 159 h58 l-41 161 l157 -187 h-40 l56 -122 z" fill="#fff" opacity="0.115"/><path d="M748 737 l-88 109 h64 l-58 101 l159 -183 h-66 l62 -84 z" fill="#fff" opacity="0.135"/><g font-family="Manrope, Helvetica, Arial, sans-serif" fill="#fff"><text x="72" y="790" font-size="150" font-weight="800" letter-spacing="-1">bp pulse</text><text x="72" y="844" font-size="50" font-weight="600" fill="#ff6d69">EV charging research</text></g></svg>