<svg xmlns="http://www.w3.org/2000/svg" width="1600" height="700" viewBox="0 0 1600 700"><defs><linearGradient id="g" x1="0" y1="0" x2="1" y2="1"><stop offset="0" stop-color="#14181D"/><stop offset="1" stop-color="#3a1f22"/></linearGradient><filter id="b"><feGaussianBlur stdDeviation="60"/></filter></defs><rect width="1600" height="700" fill="url(#g)"/><g filter="url(#b)"><circle cx="1505" cy="488" r="462" fill="#E4130E" opacity="0.200"/><circle cx="1198" cy="700" r="492" fill="#E4130E" opacity="0.167"/><circle cx="1292" cy="469" r="326" fill="#E4130E" opacity="0.104"/><circle cx="771" cy="30" r="490" fill="#E4130E" opacity="0.167"/></g><path d="M156 510 l-87 150 h64 l-68 160 l169 -138 h-63 l61 -115 z" fill="#fff" opacity="0.136"/><path d="M1198 494 l-101 154 h64 l-65 143 l195 -193 h-62 l70 -118 z" fill="#fff" opacity="0.134"/><path d="M1537 527 l-100 149 h57 l-81 148 l167 -211 h-64 l70 -114 z" fill="#fff" opacity="0.115"/><path d="M1505 488 l-87 175 h59 l-64 121 l113 -210 h-62 l61 -133 z" fill="#fff" opacity="0.121"/><path d="M1198 700 l-91 147 h49 l-32 148 l167 -193 h-71 l64 -112 z" fill="#fff" opacity="0.088"/><g font-family="Manrope, Helvetica, Arial, sans-serif" fill="#fff"><text x="72" y="590" font-size="87" font-weight="800" letter-spacing="-1">AI readiness</text><text x="72" y="644" font-size="29" font-weight="600" fill="#ff6d69">Insight · AI, service design and research</text></g></svg>