<svg xmlns="http://www.w3.org/2000/svg" width="1200" height="900" viewBox="0 0 1200 900"><defs><linearGradient id="g" x1="0" y1="0" x2="1" y2="1"><stop offset="0" stop-color="#14181D"/><stop offset="1" stop-color="#3a1f22"/></linearGradient><filter id="b"><feGaussianBlur stdDeviation="60"/></filter></defs><rect width="1200" height="900" fill="url(#g)"/><g filter="url(#b)"><circle cx="818" cy="529" r="160" fill="#E4130E" opacity="0.136"/><circle cx="188" cy="328" r="250" fill="#E4130E" opacity="0.150"/><circle cx="400" cy="448" r="184" fill="#E4130E" opacity="0.189"/><circle cx="244" cy="804" r="230" fill="#E4130E" opacity="0.158"/></g><path d="M560 148 l-61 167 h44 l-63 138 l160 -169 h-45 l44 -127 z" fill="#fff" opacity="0.073"/><path d="M409 815 l-61 145 h55 l-60 93 l141 -159 h-68 l44 -111 z" fill="#fff" opacity="0.108"/><path d="M395 585 l-83 140 h39 l-48 108 l152 -158 h-60 l59 -107 z" fill="#fff" opacity="0.056"/><path d="M818 529 l-50 121 h44 l-55 97 l186 -188 h-58 l36 -93 z" fill="#fff" opacity="0.073"/><path d="M188 328 l-61 132 h40 l-75 105 l159 -143 h-51 l44 -101 z" fill="#fff" opacity="0.060"/><g font-family="Manrope, Helvetica, Arial, sans-serif" fill="#fff"><text x="72" y="790" font-size="150" font-weight="800" letter-spacing="-1">Lloyd&#x27;s</text><text x="72" y="844" font-size="50" font-weight="600" fill="#ff6d69">Placing platform discovery</text></g></svg>