<svg xmlns="http://www.w3.org/2000/svg" width="1600" height="700" viewBox="0 0 1600 700"><defs><linearGradient id="g" x1="0" y1="0" x2="1" y2="1"><stop offset="0" stop-color="#1B2A4A"/><stop offset="1" stop-color="#2B3F6B"/></linearGradient><filter id="b"><feGaussianBlur stdDeviation="70"/></filter></defs><rect width="1600" height="700" fill="url(#g)"/><g filter="url(#b)"><circle cx="1129" cy="356" r="426" fill="#FFC83D" opacity=".32"/></g><g stroke="#fff" stroke-opacity=".10" stroke-width="2" fill="none"><path d="M0 560 C 400 560 480 315 800 315 S 1200 140 1600 140"/></g><g transform="translate(1089 126) scale(2.19) translate(-358.92 0)"><rect x="353.21" y="0" width="11.42" height="39.98" rx="5.71" fill="#fff"/><path d="M351.96 53.26 c0 4.08 -5.04 4.80 -5.04 11.04 a12.00 12.00 0 1 0 23.99 0 c0 -6.24 -5.04 -6.96 -5.04 -11.04z" fill="#FFC83D"/><rect x="352.68" y="49.67" width="12.48" height="3.60" rx="1.20" fill="#fff"/><rect x="354.60" y="47.03" width="8.64" height="1.92" rx="0.96" fill="#fff"/></g><g font-family="Helvetica Neue, Inter, Arial, sans-serif" fill="#fff"><text x="72" y="600" font-size="87" font-weight="700" letter-spacing="-1">Trust &amp; agents</text><text x="72" y="648" font-size="31" fill="#FFC83D">Insight · AI, service design and research</text></g></svg>