<svg xmlns="http://www.w3.org/2000/svg" viewBox="0 0 1200 900" width="1200" height="900"><defs><filter id="b"><feGaussianBlur stdDeviation="60"/></filter></defs><rect width="1200" height="900" rx="32" fill="#F4F5F7"/><g filter="url(#b)"><circle cx="900" cy="220" r="220" fill="#FFC83D" opacity=".28"/></g><rect x="140" y="380" width="190" height="140" rx="24" fill="#1B2A4A"/><text x="235" y="462" text-anchor="middle" font-family="Helvetica Neue, Inter, Arial" font-size="32" font-weight="700" fill="#fff">Discovery</text><rect x="370" y="380" width="190" height="140" rx="24" fill="#1B2A4A"/><text x="465" y="462" text-anchor="middle" font-family="Helvetica Neue, Inter, Arial" font-size="32" font-weight="700" fill="#fff">Alpha</text><rect x="600" y="380" width="190" height="140" rx="24" fill="#1B2A4A"/><text x="695" y="462" text-anchor="middle" font-family="Helvetica Neue, Inter, Arial" font-size="32" font-weight="700" fill="#fff">Beta</text><rect x="830" y="380" width="190" height="140" rx="24" fill="#FFC83D"/><text x="925" y="462" text-anchor="middle" font-family="Helvetica Neue, Inter, Arial" font-size="32" font-weight="700" fill="#1B2A4A">Live</text><path d="M330 450 h30 M560 450 h30 M790 450 h30" fill="none" stroke="#1B2A4A" stroke-width="8" stroke-linecap="round" stroke-linejoin="round" /><g transform="translate(1000 120) scale(1.6) translate(-358.92 0)"><rect x="353.21" y="0" width="11.42" height="39.98" rx="5.71" fill="#1B2A4A"/><path d="M351.96 53.26 c0 4.08 -5.04 4.80 -5.04 11.04 a12.00 12.00 0 1 0 23.99 0 c0 -6.24 -5.04 -6.96 -5.04 -11.04z" fill="#FFC83D"/><rect x="352.68" y="49.67" width="12.48" height="3.60" rx="1.20" fill="#1B2A4A"/><rect x="354.60" y="47.03" width="8.64" height="1.92" rx="0.96" fill="#1B2A4A"/></g><text x="600" y="640" text-anchor="middle" font-family="Helvetica Neue, Inter, Arial" font-size="30" fill="#1B2A4A" opacity=".8">Service Standard · assessments passed</text></svg>